<svg width="322" height="46" viewBox="0 0 322 46" fill="none" xmlns="http://www.w3.org/2000/svg">
<path d="M57.8735 35.0049H55.8716V10.0049H57.8735V35.0049ZM66.2964 17.854L67.6147 16.499L75.8179 23.3472L67.6147 30.1953L66.2964 28.8525L72.9492 23.3716L66.2964 17.854Z" fill="#CCCCCC"/>
<path d="M100.594 34H87.5332V11.0254H100.594V13.6621H90.6621V20.7812H100.207V23.418H90.6621V31.3281H100.594V34ZM112.617 11.6758H107.396V9.16211H115.711V31.4512H120.967V34H106.816V31.4512H112.617V11.6758ZM138.984 34V21.3262C138.984 20.7754 138.961 20.3242 138.914 19.9727C138.879 19.6211 138.814 19.3457 138.721 19.1465C138.639 18.9355 138.527 18.7891 138.387 18.707C138.258 18.625 138.094 18.584 137.895 18.584C137.66 18.584 137.443 18.6543 137.244 18.7949C137.045 18.9355 136.828 19.1641 136.594 19.4805C136.371 19.7969 136.119 20.2188 135.838 20.7461C135.568 21.2617 135.246 21.9004 134.871 22.6621V34H132.076V21.6602C132.076 21.0156 132.053 20.4941 132.006 20.0957C131.971 19.6973 131.906 19.3867 131.812 19.1641C131.73 18.9414 131.619 18.7891 131.479 18.707C131.338 18.625 131.168 18.584 130.969 18.584C130.758 18.584 130.559 18.6426 130.371 18.7598C130.184 18.877 129.973 19.0879 129.738 19.3926C129.516 19.6973 129.264 20.1133 128.982 20.6406C128.701 21.168 128.367 21.8418 127.98 22.6621V34H125.168V16.3516H127.506L127.646 19.709C127.951 19.041 128.244 18.4727 128.525 18.0039C128.818 17.5352 129.117 17.1602 129.422 16.8789C129.727 16.5859 130.049 16.375 130.389 16.2461C130.74 16.1055 131.127 16.0352 131.549 16.0352C132.498 16.0352 133.219 16.3457 133.711 16.9668C134.203 17.5879 134.449 18.5488 134.449 19.8496C134.73 19.2402 135.006 18.7012 135.275 18.2324C135.545 17.752 135.832 17.3535 136.137 17.0371C136.453 16.709 136.799 16.4629 137.174 16.2988C137.549 16.123 137.982 16.0352 138.475 16.0352C140.689 16.0352 141.797 17.7402 141.797 21.1504V34H138.984ZM163.172 41.207H143.379V38.6758H163.172V41.207ZM179.73 13.6973H169.975V21.1504H179.221V23.7695H169.975V34H166.775V11.0254H179.73V13.6973ZM201.141 25.0352C201.141 26.4062 200.947 27.666 200.561 28.8145C200.174 29.9512 199.617 30.9297 198.891 31.75C198.164 32.5586 197.279 33.1914 196.236 33.6484C195.193 34.0938 194.01 34.3164 192.686 34.3164C191.42 34.3164 190.283 34.123 189.275 33.7363C188.279 33.3379 187.43 32.7578 186.727 31.9961C186.035 31.2344 185.502 30.291 185.127 29.166C184.764 28.041 184.582 26.7461 184.582 25.2812C184.582 23.9102 184.775 22.6621 185.162 21.5371C185.549 20.4004 186.105 19.4277 186.832 18.6191C187.559 17.7988 188.443 17.166 189.486 16.7207C190.529 16.2637 191.713 16.0352 193.037 16.0352C194.303 16.0352 195.434 16.2344 196.43 16.6328C197.438 17.0195 198.287 17.5938 198.979 18.3555C199.682 19.1055 200.215 20.043 200.578 21.168C200.953 22.293 201.141 23.582 201.141 25.0352ZM198.012 25.1758C198.012 24.0859 197.889 23.1367 197.643 22.3281C197.408 21.5078 197.068 20.8281 196.623 20.2891C196.178 19.7383 195.633 19.3281 194.988 19.0586C194.355 18.7773 193.646 18.6367 192.861 18.6367C191.947 18.6367 191.162 18.8184 190.506 19.1816C189.861 19.5332 189.328 20.0078 188.906 20.6055C188.496 21.2031 188.191 21.9004 187.992 22.6973C187.805 23.4824 187.711 24.3086 187.711 25.1758C187.711 26.2656 187.828 27.2207 188.062 28.041C188.309 28.8613 188.654 29.5469 189.1 30.0977C189.545 30.6367 190.084 31.0469 190.717 31.3281C191.35 31.5977 192.064 31.7324 192.861 31.7324C193.775 31.7324 194.555 31.5566 195.199 31.2051C195.855 30.8418 196.389 30.3613 196.799 29.7637C197.221 29.166 197.525 28.4746 197.713 27.6895C197.912 26.8926 198.012 26.0547 198.012 25.1758ZM206.291 16.3516H209.086L209.174 19.6035C210.217 18.3496 211.242 17.4414 212.25 16.8789C213.27 16.3164 214.295 16.0352 215.326 16.0352C217.154 16.0352 218.537 16.627 219.475 17.8105C220.424 18.9941 220.863 20.752 220.793 23.084H217.699C217.734 21.5371 217.506 20.418 217.014 19.7266C216.533 19.0234 215.824 18.6719 214.887 18.6719C214.477 18.6719 214.061 18.748 213.639 18.9004C213.229 19.041 212.801 19.2754 212.355 19.6035C211.922 19.9199 211.459 20.3301 210.967 20.834C210.475 21.3379 209.947 21.9473 209.385 22.6621V34H206.291V16.3516ZM237.949 34V21.3262C237.949 20.7754 237.926 20.3242 237.879 19.9727C237.844 19.6211 237.779 19.3457 237.686 19.1465C237.604 18.9355 237.492 18.7891 237.352 18.707C237.223 18.625 237.059 18.584 236.859 18.584C236.625 18.584 236.408 18.6543 236.209 18.7949C236.01 18.9355 235.793 19.1641 235.559 19.4805C235.336 19.7969 235.084 20.2188 234.803 20.7461C234.533 21.2617 234.211 21.9004 233.836 22.6621V34H231.041V21.6602C231.041 21.0156 231.018 20.4941 230.971 20.0957C230.936 19.6973 230.871 19.3867 230.777 19.1641C230.695 18.9414 230.584 18.7891 230.443 18.707C230.303 18.625 230.133 18.584 229.934 18.584C229.723 18.584 229.523 18.6426 229.336 18.7598C229.148 18.877 228.938 19.0879 228.703 19.3926C228.48 19.6973 228.229 20.1133 227.947 20.6406C227.666 21.168 227.332 21.8418 226.945 22.6621V34H224.133V16.3516H226.471L226.611 19.709C226.916 19.041 227.209 18.4727 227.49 18.0039C227.783 17.5352 228.082 17.1602 228.387 16.8789C228.691 16.5859 229.014 16.375 229.354 16.2461C229.705 16.1055 230.092 16.0352 230.514 16.0352C231.463 16.0352 232.184 16.3457 232.676 16.9668C233.168 17.5879 233.414 18.5488 233.414 19.8496C233.695 19.2402 233.971 18.7012 234.24 18.2324C234.51 17.752 234.797 17.3535 235.102 17.0371C235.418 16.709 235.764 16.4629 236.139 16.2988C236.514 16.123 236.947 16.0352 237.439 16.0352C239.654 16.0352 240.762 17.7402 240.762 21.1504V34H237.949ZM256.494 34L256.424 31.627C255.463 32.5762 254.484 33.2617 253.488 33.6836C252.504 34.1055 251.467 34.3164 250.377 34.3164C249.369 34.3164 248.508 34.1875 247.793 33.9297C247.078 33.6719 246.486 33.3203 246.018 32.875C245.561 32.418 245.221 31.8848 244.998 31.2754C244.787 30.666 244.682 30.0039 244.682 29.2891C244.682 27.5195 245.338 26.1367 246.65 25.1406C247.975 24.1328 249.926 23.6289 252.504 23.6289H256.16V22.082C256.16 21.0391 255.826 20.207 255.158 19.5859C254.49 18.9531 253.471 18.6367 252.1 18.6367C251.104 18.6367 250.119 18.748 249.146 18.9707C248.186 19.1934 247.189 19.5098 246.158 19.9199V17.1602C246.545 17.0195 246.973 16.8848 247.441 16.7559C247.922 16.6152 248.426 16.4922 248.953 16.3867C249.48 16.2812 250.031 16.1992 250.605 16.1406C251.18 16.0703 251.76 16.0352 252.346 16.0352C253.412 16.0352 254.373 16.1523 255.229 16.3867C256.084 16.6211 256.805 16.9785 257.391 17.459C257.988 17.9395 258.445 18.543 258.762 19.2695C259.078 19.9961 259.236 20.8516 259.236 21.8359V34H256.494ZM256.16 25.9668H252.275C251.514 25.9668 250.857 26.043 250.307 26.1953C249.756 26.3477 249.305 26.5645 248.953 26.8457C248.602 27.127 248.338 27.4668 248.162 27.8652C247.998 28.252 247.916 28.6914 247.916 29.1836C247.916 29.5234 247.969 29.8516 248.074 30.168C248.18 30.4727 248.35 30.748 248.584 30.9941C248.818 31.2285 249.123 31.416 249.498 31.5566C249.873 31.6973 250.33 31.7676 250.869 31.7676C251.572 31.7676 252.375 31.5566 253.277 31.1348C254.191 30.7012 255.152 30.0215 256.16 29.0957V25.9668ZM279.17 33.7539C278.479 33.9297 277.764 34.0527 277.025 34.123C276.287 34.2051 275.537 34.2461 274.775 34.2461C272.561 34.2461 270.908 33.748 269.818 32.752C268.729 31.7441 268.184 30.2031 268.184 28.1289V18.918H263.244V16.3516H268.184V11.5L271.242 10.709V16.3516H279.17V18.918H271.242V27.8828C271.242 29.1484 271.576 30.0977 272.244 30.7305C272.924 31.3516 273.92 31.6621 275.232 31.6621C275.795 31.6621 276.41 31.6211 277.078 31.5391C277.746 31.4453 278.443 31.3047 279.17 31.1172V33.7539ZM300.105 25.0352C300.105 26.4062 299.912 27.666 299.525 28.8145C299.139 29.9512 298.582 30.9297 297.855 31.75C297.129 32.5586 296.244 33.1914 295.201 33.6484C294.158 34.0938 292.975 34.3164 291.65 34.3164C290.385 34.3164 289.248 34.123 288.24 33.7363C287.244 33.3379 286.395 32.7578 285.691 31.9961C285 31.2344 284.467 30.291 284.092 29.166C283.729 28.041 283.547 26.7461 283.547 25.2812C283.547 23.9102 283.74 22.6621 284.127 21.5371C284.514 20.4004 285.07 19.4277 285.797 18.6191C286.523 17.7988 287.408 17.166 288.451 16.7207C289.494 16.2637 290.678 16.0352 292.002 16.0352C293.268 16.0352 294.398 16.2344 295.395 16.6328C296.402 17.0195 297.252 17.5938 297.943 18.3555C298.646 19.1055 299.18 20.043 299.543 21.168C299.918 22.293 300.105 23.582 300.105 25.0352ZM296.977 25.1758C296.977 24.0859 296.854 23.1367 296.607 22.3281C296.373 21.5078 296.033 20.8281 295.588 20.2891C295.143 19.7383 294.598 19.3281 293.953 19.0586C293.32 18.7773 292.611 18.6367 291.826 18.6367C290.912 18.6367 290.127 18.8184 289.471 19.1816C288.826 19.5332 288.293 20.0078 287.871 20.6055C287.461 21.2031 287.156 21.9004 286.957 22.6973C286.77 23.4824 286.676 24.3086 286.676 25.1758C286.676 26.2656 286.793 27.2207 287.027 28.041C287.273 28.8613 287.619 29.5469 288.064 30.0977C288.51 30.6367 289.049 31.0469 289.682 31.3281C290.314 31.5977 291.029 31.7324 291.826 31.7324C292.74 31.7324 293.52 31.5566 294.164 31.2051C294.82 30.8418 295.354 30.3613 295.764 29.7637C296.186 29.166 296.49 28.4746 296.678 27.6895C296.877 26.8926 296.977 26.0547 296.977 25.1758ZM305.256 16.3516H308.051L308.139 19.6035C309.182 18.3496 310.207 17.4414 311.215 16.8789C312.234 16.3164 313.26 16.0352 314.291 16.0352C316.119 16.0352 317.502 16.627 318.439 17.8105C319.389 18.9941 319.828 20.752 319.758 23.084H316.664C316.699 21.5371 316.471 20.418 315.979 19.7266C315.498 19.0234 314.789 18.6719 313.852 18.6719C313.441 18.6719 313.025 18.748 312.604 18.9004C312.193 19.041 311.766 19.2754 311.32 19.6035C310.887 19.9199 310.424 20.3301 309.932 20.834C309.439 21.3379 308.912 21.9473 308.35 22.6621V34H305.256V16.3516Z" fill="#C0C0C0"/>
<g clip-path="url(#clip0_101_50)">
<path d="M23.0112 21.7618L32.9566 11.8103H13.0656L23.0112 21.7618Z" fill="#F0AD00"/>
<path d="M1.26224 0L11.2802 10.024H33.0561L23.0381 0H1.26224Z" fill="#7FD13B"/>
<path d="M45.9994 22.975L35.161 12.1301L24.2732 23.0244L35.1116 33.8692L45.9994 22.975Z" fill="#7FD13B"/>
<path d="M46.0224 20.4716V0H25.5627L46.0224 20.4716Z" fill="#60B5CC"/>
<path d="M21.7488 23.0248L0 1.26313V44.7867L21.7488 23.0248Z" fill="#5A6378"/>
<path d="M36.3743 35.1328L46.0224 44.7867V25.479L36.3743 35.1328Z" fill="#F0AD00"/>
<path d="M23.0112 24.2879L1.26251 46.0496H44.7599L23.0112 24.2879Z" fill="#60B5CC"/>
<path d="M12.1923 35.1632L23.0256 24.3235L33.859 35.1632L44.6924 46.003H23.0256H1.35892L12.1923 35.1632Z" fill="#5A6378"/>
<path d="M29.6943 28.4277L24.3092 23.0392L29.7321 17.6131L35.155 12.187L40.5528 17.5879L45.9505 22.9889L40.5403 28.4025C37.5646 31.38 35.1186 33.8161 35.1047 33.8161C35.0907 33.8161 32.6561 31.3913 29.6943 28.4277V28.4277Z" fill="#5A6378"/>
<path d="M41.1818 39.922L36.4132 35.1504L41.1945 30.3665L45.9758 25.5826V35.1381C45.9758 40.3937 45.9701 44.6937 45.9631 44.6937C45.9561 44.6937 43.8046 42.5464 41.1818 39.922H41.1818Z" fill="#5A6378"/>
<path d="M35.7841 10.1977L25.6177 0.025177H35.7967H45.9758V10.1977C45.9758 15.7926 45.9701 20.3702 45.9632 20.3702C45.9562 20.3702 41.3756 15.7926 35.7841 10.1977H35.7841Z" fill="#5A6378"/>
<path d="M18.0431 16.7696L13.0858 11.8092H23.0005H32.9152L27.9579 16.7696C25.2314 19.4978 23.0006 21.7299 23.0005 21.7299C23.0004 21.7299 20.7695 19.4978 18.0431 16.7696V16.7696Z" fill="#5A6378"/>
<path d="M6.29116 5.01072L1.30875 0.025177H12.1547H23.0007L27.9831 5.01072L32.9655 9.99627H22.1195H11.2736L6.29116 5.01072Z" fill="#5A6378"/>
</g>
<rect x="0.5" y="0.5" width="45" height="45" stroke="#A9A9A9"/>
<defs>
<clipPath id="clip0_101_50">
<rect width="46" height="46" fill="white"/>
</clipPath>
</defs>
</svg>
