<svg width="324" height="46" viewBox="0 0 324 46" fill="none" xmlns="http://www.w3.org/2000/svg">
<path d="M59.8735 35.0049H57.8716V10.0049H59.8735V35.0049ZM68.2964 17.854L69.6147 16.499L77.8179 23.3472L69.6147 30.1953L68.2964 28.8525L74.9492 23.3716L68.2964 17.854Z" fill="#696078"/>
<path d="M102.594 34H89.5332V11.0254H102.594V13.6621H92.6621V20.7812H102.207V23.418H92.6621V31.3281H102.594V34ZM114.617 11.6758H109.396V9.16211H117.711V31.4512H122.967V34H108.816V31.4512H114.617V11.6758ZM140.984 34V21.3262C140.984 20.7754 140.961 20.3242 140.914 19.9727C140.879 19.6211 140.814 19.3457 140.721 19.1465C140.639 18.9355 140.527 18.7891 140.387 18.707C140.258 18.625 140.094 18.584 139.895 18.584C139.66 18.584 139.443 18.6543 139.244 18.7949C139.045 18.9355 138.828 19.1641 138.594 19.4805C138.371 19.7969 138.119 20.2188 137.838 20.7461C137.568 21.2617 137.246 21.9004 136.871 22.6621V34H134.076V21.6602C134.076 21.0156 134.053 20.4941 134.006 20.0957C133.971 19.6973 133.906 19.3867 133.812 19.1641C133.73 18.9414 133.619 18.7891 133.479 18.707C133.338 18.625 133.168 18.584 132.969 18.584C132.758 18.584 132.559 18.6426 132.371 18.7598C132.184 18.877 131.973 19.0879 131.738 19.3926C131.516 19.6973 131.264 20.1133 130.982 20.6406C130.701 21.168 130.367 21.8418 129.98 22.6621V34H127.168V16.3516H129.506L129.646 19.709C129.951 19.041 130.244 18.4727 130.525 18.0039C130.818 17.5352 131.117 17.1602 131.422 16.8789C131.727 16.5859 132.049 16.375 132.389 16.2461C132.74 16.1055 133.127 16.0352 133.549 16.0352C134.498 16.0352 135.219 16.3457 135.711 16.9668C136.203 17.5879 136.449 18.5488 136.449 19.8496C136.73 19.2402 137.006 18.7012 137.275 18.2324C137.545 17.752 137.832 17.3535 138.137 17.0371C138.453 16.709 138.799 16.4629 139.174 16.2988C139.549 16.123 139.982 16.0352 140.475 16.0352C142.689 16.0352 143.797 17.7402 143.797 21.1504V34H140.984ZM165.172 41.207H145.379V38.6758H165.172V41.207ZM181.73 13.6973H171.975V21.1504H181.221V23.7695H171.975V34H168.775V11.0254H181.73V13.6973ZM203.141 25.0352C203.141 26.4062 202.947 27.666 202.561 28.8145C202.174 29.9512 201.617 30.9297 200.891 31.75C200.164 32.5586 199.279 33.1914 198.236 33.6484C197.193 34.0938 196.01 34.3164 194.686 34.3164C193.42 34.3164 192.283 34.123 191.275 33.7363C190.279 33.3379 189.43 32.7578 188.727 31.9961C188.035 31.2344 187.502 30.291 187.127 29.166C186.764 28.041 186.582 26.7461 186.582 25.2812C186.582 23.9102 186.775 22.6621 187.162 21.5371C187.549 20.4004 188.105 19.4277 188.832 18.6191C189.559 17.7988 190.443 17.166 191.486 16.7207C192.529 16.2637 193.713 16.0352 195.037 16.0352C196.303 16.0352 197.434 16.2344 198.43 16.6328C199.438 17.0195 200.287 17.5938 200.979 18.3555C201.682 19.1055 202.215 20.043 202.578 21.168C202.953 22.293 203.141 23.582 203.141 25.0352ZM200.012 25.1758C200.012 24.0859 199.889 23.1367 199.643 22.3281C199.408 21.5078 199.068 20.8281 198.623 20.2891C198.178 19.7383 197.633 19.3281 196.988 19.0586C196.355 18.7773 195.646 18.6367 194.861 18.6367C193.947 18.6367 193.162 18.8184 192.506 19.1816C191.861 19.5332 191.328 20.0078 190.906 20.6055C190.496 21.2031 190.191 21.9004 189.992 22.6973C189.805 23.4824 189.711 24.3086 189.711 25.1758C189.711 26.2656 189.828 27.2207 190.062 28.041C190.309 28.8613 190.654 29.5469 191.1 30.0977C191.545 30.6367 192.084 31.0469 192.717 31.3281C193.35 31.5977 194.064 31.7324 194.861 31.7324C195.775 31.7324 196.555 31.5566 197.199 31.2051C197.855 30.8418 198.389 30.3613 198.799 29.7637C199.221 29.166 199.525 28.4746 199.713 27.6895C199.912 26.8926 200.012 26.0547 200.012 25.1758ZM208.291 16.3516H211.086L211.174 19.6035C212.217 18.3496 213.242 17.4414 214.25 16.8789C215.27 16.3164 216.295 16.0352 217.326 16.0352C219.154 16.0352 220.537 16.627 221.475 17.8105C222.424 18.9941 222.863 20.752 222.793 23.084H219.699C219.734 21.5371 219.506 20.418 219.014 19.7266C218.533 19.0234 217.824 18.6719 216.887 18.6719C216.477 18.6719 216.061 18.748 215.639 18.9004C215.229 19.041 214.801 19.2754 214.355 19.6035C213.922 19.9199 213.459 20.3301 212.967 20.834C212.475 21.3379 211.947 21.9473 211.385 22.6621V34H208.291V16.3516ZM239.949 34V21.3262C239.949 20.7754 239.926 20.3242 239.879 19.9727C239.844 19.6211 239.779 19.3457 239.686 19.1465C239.604 18.9355 239.492 18.7891 239.352 18.707C239.223 18.625 239.059 18.584 238.859 18.584C238.625 18.584 238.408 18.6543 238.209 18.7949C238.01 18.9355 237.793 19.1641 237.559 19.4805C237.336 19.7969 237.084 20.2188 236.803 20.7461C236.533 21.2617 236.211 21.9004 235.836 22.6621V34H233.041V21.6602C233.041 21.0156 233.018 20.4941 232.971 20.0957C232.936 19.6973 232.871 19.3867 232.777 19.1641C232.695 18.9414 232.584 18.7891 232.443 18.707C232.303 18.625 232.133 18.584 231.934 18.584C231.723 18.584 231.523 18.6426 231.336 18.7598C231.148 18.877 230.938 19.0879 230.703 19.3926C230.48 19.6973 230.229 20.1133 229.947 20.6406C229.666 21.168 229.332 21.8418 228.945 22.6621V34H226.133V16.3516H228.471L228.611 19.709C228.916 19.041 229.209 18.4727 229.49 18.0039C229.783 17.5352 230.082 17.1602 230.387 16.8789C230.691 16.5859 231.014 16.375 231.354 16.2461C231.705 16.1055 232.092 16.0352 232.514 16.0352C233.463 16.0352 234.184 16.3457 234.676 16.9668C235.168 17.5879 235.414 18.5488 235.414 19.8496C235.695 19.2402 235.971 18.7012 236.24 18.2324C236.51 17.752 236.797 17.3535 237.102 17.0371C237.418 16.709 237.764 16.4629 238.139 16.2988C238.514 16.123 238.947 16.0352 239.439 16.0352C241.654 16.0352 242.762 17.7402 242.762 21.1504V34H239.949ZM258.494 34L258.424 31.627C257.463 32.5762 256.484 33.2617 255.488 33.6836C254.504 34.1055 253.467 34.3164 252.377 34.3164C251.369 34.3164 250.508 34.1875 249.793 33.9297C249.078 33.6719 248.486 33.3203 248.018 32.875C247.561 32.418 247.221 31.8848 246.998 31.2754C246.787 30.666 246.682 30.0039 246.682 29.2891C246.682 27.5195 247.338 26.1367 248.65 25.1406C249.975 24.1328 251.926 23.6289 254.504 23.6289H258.16V22.082C258.16 21.0391 257.826 20.207 257.158 19.5859C256.49 18.9531 255.471 18.6367 254.1 18.6367C253.104 18.6367 252.119 18.748 251.146 18.9707C250.186 19.1934 249.189 19.5098 248.158 19.9199V17.1602C248.545 17.0195 248.973 16.8848 249.441 16.7559C249.922 16.6152 250.426 16.4922 250.953 16.3867C251.48 16.2812 252.031 16.1992 252.605 16.1406C253.18 16.0703 253.76 16.0352 254.346 16.0352C255.412 16.0352 256.373 16.1523 257.229 16.3867C258.084 16.6211 258.805 16.9785 259.391 17.459C259.988 17.9395 260.445 18.543 260.762 19.2695C261.078 19.9961 261.236 20.8516 261.236 21.8359V34H258.494ZM258.16 25.9668H254.275C253.514 25.9668 252.857 26.043 252.307 26.1953C251.756 26.3477 251.305 26.5645 250.953 26.8457C250.602 27.127 250.338 27.4668 250.162 27.8652C249.998 28.252 249.916 28.6914 249.916 29.1836C249.916 29.5234 249.969 29.8516 250.074 30.168C250.18 30.4727 250.35 30.748 250.584 30.9941C250.818 31.2285 251.123 31.416 251.498 31.5566C251.873 31.6973 252.33 31.7676 252.869 31.7676C253.572 31.7676 254.375 31.5566 255.277 31.1348C256.191 30.7012 257.152 30.0215 258.16 29.0957V25.9668ZM281.17 33.7539C280.479 33.9297 279.764 34.0527 279.025 34.123C278.287 34.2051 277.537 34.2461 276.775 34.2461C274.561 34.2461 272.908 33.748 271.818 32.752C270.729 31.7441 270.184 30.2031 270.184 28.1289V18.918H265.244V16.3516H270.184V11.5L273.242 10.709V16.3516H281.17V18.918H273.242V27.8828C273.242 29.1484 273.576 30.0977 274.244 30.7305C274.924 31.3516 275.92 31.6621 277.232 31.6621C277.795 31.6621 278.41 31.6211 279.078 31.5391C279.746 31.4453 280.443 31.3047 281.17 31.1172V33.7539ZM302.105 25.0352C302.105 26.4062 301.912 27.666 301.525 28.8145C301.139 29.9512 300.582 30.9297 299.855 31.75C299.129 32.5586 298.244 33.1914 297.201 33.6484C296.158 34.0938 294.975 34.3164 293.65 34.3164C292.385 34.3164 291.248 34.123 290.24 33.7363C289.244 33.3379 288.395 32.7578 287.691 31.9961C287 31.2344 286.467 30.291 286.092 29.166C285.729 28.041 285.547 26.7461 285.547 25.2812C285.547 23.9102 285.74 22.6621 286.127 21.5371C286.514 20.4004 287.07 19.4277 287.797 18.6191C288.523 17.7988 289.408 17.166 290.451 16.7207C291.494 16.2637 292.678 16.0352 294.002 16.0352C295.268 16.0352 296.398 16.2344 297.395 16.6328C298.402 17.0195 299.252 17.5938 299.943 18.3555C300.646 19.1055 301.18 20.043 301.543 21.168C301.918 22.293 302.105 23.582 302.105 25.0352ZM298.977 25.1758C298.977 24.0859 298.854 23.1367 298.607 22.3281C298.373 21.5078 298.033 20.8281 297.588 20.2891C297.143 19.7383 296.598 19.3281 295.953 19.0586C295.32 18.7773 294.611 18.6367 293.826 18.6367C292.912 18.6367 292.127 18.8184 291.471 19.1816C290.826 19.5332 290.293 20.0078 289.871 20.6055C289.461 21.2031 289.156 21.9004 288.957 22.6973C288.77 23.4824 288.676 24.3086 288.676 25.1758C288.676 26.2656 288.793 27.2207 289.027 28.041C289.273 28.8613 289.619 29.5469 290.064 30.0977C290.51 30.6367 291.049 31.0469 291.682 31.3281C292.314 31.5977 293.029 31.7324 293.826 31.7324C294.74 31.7324 295.52 31.5566 296.164 31.2051C296.82 30.8418 297.354 30.3613 297.764 29.7637C298.186 29.166 298.49 28.4746 298.678 27.6895C298.877 26.8926 298.977 26.0547 298.977 25.1758ZM307.256 16.3516H310.051L310.139 19.6035C311.182 18.3496 312.207 17.4414 313.215 16.8789C314.234 16.3164 315.26 16.0352 316.291 16.0352C318.119 16.0352 319.502 16.627 320.439 17.8105C321.389 18.9941 321.828 20.752 321.758 23.084H318.664C318.699 21.5371 318.471 20.418 317.979 19.7266C317.498 19.0234 316.789 18.6719 315.852 18.6719C315.441 18.6719 315.025 18.748 314.604 18.9004C314.193 19.041 313.766 19.2754 313.32 19.6035C312.887 19.9199 312.424 20.3301 311.932 20.834C311.439 21.3379 310.912 21.9473 310.35 22.6621V34H307.256V16.3516Z" fill="#51A4BC"/>
<g clip-path="url(#clip0_101_49)">
<path d="M23.0112 21.7618L32.9566 11.8103H13.0656L23.0112 21.7618Z" fill="#F0AD00"/>
<path d="M1.26224 0L11.2802 10.024H33.0561L23.0381 0H1.26224Z" fill="#7FD13B"/>
<path d="M45.9994 22.975L35.161 12.1302L24.2732 23.0244L35.1116 33.8692L45.9994 22.975Z" fill="#7FD13B"/>
<path d="M46.0224 20.4716V0H25.5627L46.0224 20.4716Z" fill="#60B5CC"/>
<path d="M21.7488 23.0248L0 1.26312V44.7867L21.7488 23.0248Z" fill="#5A6378"/>
<path d="M36.3743 35.1328L46.0224 44.7867V25.479L36.3743 35.1328Z" fill="#F0AD00"/>
<path d="M23.0112 24.2879L1.26251 46.0496H44.7599L23.0112 24.2879Z" fill="#60B5CC"/>
<path d="M12.1923 35.1632L23.0256 24.3235L33.859 35.1632L44.6924 46.003H23.0256H1.35892L12.1923 35.1632Z" fill="#5A6378"/>
<path d="M29.6943 28.4277L24.3092 23.0392L29.7321 17.6131L35.155 12.187L40.5528 17.5879L45.9505 22.9889L40.5403 28.4025C37.5646 31.38 35.1186 33.8161 35.1047 33.8161C35.0907 33.8161 32.6561 31.3913 29.6943 28.4277V28.4277Z" fill="#5A6378"/>
<path d="M0.0177917 23.0214V1.31757L10.8633 12.1695L21.7088 23.0214L10.8633 33.8733L0.0177917 44.7252V23.0214Z" fill="#60B5CC"/>
<path d="M18.061 16.7719L13.1321 11.8401H23.0078H32.8834L27.9545 16.7719C25.2436 19.4845 23.0176 21.7038 23.0078 21.7038C22.9979 21.7038 20.7719 19.4845 18.061 16.7719Z" fill="#60B5CC"/>
<path d="M6.31691 5.02089L1.31686 0.0177917H12.1713H23.0257L28.0257 5.02089L33.0257 10.024H22.1713H11.317L6.31691 5.02089Z" fill="#60B5CC"/>
<path d="M29.7013 28.4083L24.3192 23.0392L29.7313 17.6266L35.1433 12.2141L40.5265 17.6003L45.9096 22.9865L40.5268 28.3719C37.5663 31.3339 35.1304 33.7619 35.1137 33.7674C35.0971 33.773 32.6615 31.3614 29.7013 28.4083V28.4083Z" fill="#60B5CC"/>
<path d="M41.1933 39.9179L36.4068 35.1285L41.2022 30.3302L45.9977 25.5318V35.1196C45.9977 40.3929 45.9937 44.7074 45.9888 44.7074C45.9838 44.7074 43.8259 42.5521 41.1933 39.9179H41.1933Z" fill="#60B5CC"/>
<path d="M12.2067 35.1641L23.0255 24.3389L33.8354 35.1552C39.7809 41.1041 44.6454 45.9755 44.6454 45.9804C44.6454 45.9853 34.9124 45.9893 23.0167 45.9893H1.38797L12.2067 35.1641Z" fill="#60B5CC"/>
</g>
<defs>
<clipPath id="clip0_101_49">
<rect width="46" height="46" fill="white"/>
</clipPath>
</defs>
</svg>
