<svg width="342" height="46" viewBox="0 0 342 46" fill="none" xmlns="http://www.w3.org/2000/svg">
<path d="M57.8735 35.0049H55.8716V10.0049H57.8735V35.0049ZM66.2964 17.854L67.6147 16.499L75.8179 23.3472L67.6147 30.1953L66.2964 28.8525L72.9492 23.3716L66.2964 17.854Z" fill="#CCCCCC"/>
<path d="M100.594 34H87.5332V11.0254H100.594V13.6621H90.6621V20.7812H100.207V23.418H90.6621V31.3281H100.594V34ZM112.617 11.6758H107.396V9.16211H115.711V31.4512H120.967V34H106.816V31.4512H112.617V11.6758ZM138.984 34V21.3262C138.984 20.7754 138.961 20.3242 138.914 19.9727C138.879 19.6211 138.814 19.3457 138.721 19.1465C138.639 18.9355 138.527 18.7891 138.387 18.707C138.258 18.625 138.094 18.584 137.895 18.584C137.66 18.584 137.443 18.6543 137.244 18.7949C137.045 18.9355 136.828 19.1641 136.594 19.4805C136.371 19.7969 136.119 20.2188 135.838 20.7461C135.568 21.2617 135.246 21.9004 134.871 22.6621V34H132.076V21.6602C132.076 21.0156 132.053 20.4941 132.006 20.0957C131.971 19.6973 131.906 19.3867 131.812 19.1641C131.73 18.9414 131.619 18.7891 131.479 18.707C131.338 18.625 131.168 18.584 130.969 18.584C130.758 18.584 130.559 18.6426 130.371 18.7598C130.184 18.877 129.973 19.0879 129.738 19.3926C129.516 19.6973 129.264 20.1133 128.982 20.6406C128.701 21.168 128.367 21.8418 127.98 22.6621V34H125.168V16.3516H127.506L127.646 19.709C127.951 19.041 128.244 18.4727 128.525 18.0039C128.818 17.5352 129.117 17.1602 129.422 16.8789C129.727 16.5859 130.049 16.375 130.389 16.2461C130.74 16.1055 131.127 16.0352 131.549 16.0352C132.498 16.0352 133.219 16.3457 133.711 16.9668C134.203 17.5879 134.449 18.5488 134.449 19.8496C134.73 19.2402 135.006 18.7012 135.275 18.2324C135.545 17.752 135.832 17.3535 136.137 17.0371C136.453 16.709 136.799 16.4629 137.174 16.2988C137.549 16.123 137.982 16.0352 138.475 16.0352C140.689 16.0352 141.797 17.7402 141.797 21.1504V34H138.984ZM163.172 41.207H143.379V38.6758H163.172V41.207ZM179.73 13.6973H169.975V21.1504H179.221V23.7695H169.975V34H166.775V11.0254H179.73V13.6973ZM201.141 25.0352C201.141 26.4062 200.947 27.666 200.561 28.8145C200.174 29.9512 199.617 30.9297 198.891 31.75C198.164 32.5586 197.279 33.1914 196.236 33.6484C195.193 34.0938 194.01 34.3164 192.686 34.3164C191.42 34.3164 190.283 34.123 189.275 33.7363C188.279 33.3379 187.43 32.7578 186.727 31.9961C186.035 31.2344 185.502 30.291 185.127 29.166C184.764 28.041 184.582 26.7461 184.582 25.2812C184.582 23.9102 184.775 22.6621 185.162 21.5371C185.549 20.4004 186.105 19.4277 186.832 18.6191C187.559 17.7988 188.443 17.166 189.486 16.7207C190.529 16.2637 191.713 16.0352 193.037 16.0352C194.303 16.0352 195.434 16.2344 196.43 16.6328C197.438 17.0195 198.287 17.5938 198.979 18.3555C199.682 19.1055 200.215 20.043 200.578 21.168C200.953 22.293 201.141 23.582 201.141 25.0352ZM198.012 25.1758C198.012 24.0859 197.889 23.1367 197.643 22.3281C197.408 21.5078 197.068 20.8281 196.623 20.2891C196.178 19.7383 195.633 19.3281 194.988 19.0586C194.355 18.7773 193.646 18.6367 192.861 18.6367C191.947 18.6367 191.162 18.8184 190.506 19.1816C189.861 19.5332 189.328 20.0078 188.906 20.6055C188.496 21.2031 188.191 21.9004 187.992 22.6973C187.805 23.4824 187.711 24.3086 187.711 25.1758C187.711 26.2656 187.828 27.2207 188.062 28.041C188.309 28.8613 188.654 29.5469 189.1 30.0977C189.545 30.6367 190.084 31.0469 190.717 31.3281C191.35 31.5977 192.064 31.7324 192.861 31.7324C193.775 31.7324 194.555 31.5566 195.199 31.2051C195.855 30.8418 196.389 30.3613 196.799 29.7637C197.221 29.166 197.525 28.4746 197.713 27.6895C197.912 26.8926 198.012 26.0547 198.012 25.1758ZM206.291 16.3516H209.086L209.174 19.6035C210.217 18.3496 211.242 17.4414 212.25 16.8789C213.27 16.3164 214.295 16.0352 215.326 16.0352C217.154 16.0352 218.537 16.627 219.475 17.8105C220.424 18.9941 220.863 20.752 220.793 23.084H217.699C217.734 21.5371 217.506 20.418 217.014 19.7266C216.533 19.0234 215.824 18.6719 214.887 18.6719C214.477 18.6719 214.061 18.748 213.639 18.9004C213.229 19.041 212.801 19.2754 212.355 19.6035C211.922 19.9199 211.459 20.3301 210.967 20.834C210.475 21.3379 209.947 21.9473 209.385 22.6621V34H206.291V16.3516ZM237.949 34V21.3262C237.949 20.7754 237.926 20.3242 237.879 19.9727C237.844 19.6211 237.779 19.3457 237.686 19.1465C237.604 18.9355 237.492 18.7891 237.352 18.707C237.223 18.625 237.059 18.584 236.859 18.584C236.625 18.584 236.408 18.6543 236.209 18.7949C236.01 18.9355 235.793 19.1641 235.559 19.4805C235.336 19.7969 235.084 20.2188 234.803 20.7461C234.533 21.2617 234.211 21.9004 233.836 22.6621V34H231.041V21.6602C231.041 21.0156 231.018 20.4941 230.971 20.0957C230.936 19.6973 230.871 19.3867 230.777 19.1641C230.695 18.9414 230.584 18.7891 230.443 18.707C230.303 18.625 230.133 18.584 229.934 18.584C229.723 18.584 229.523 18.6426 229.336 18.7598C229.148 18.877 228.938 19.0879 228.703 19.3926C228.48 19.6973 228.229 20.1133 227.947 20.6406C227.666 21.168 227.332 21.8418 226.945 22.6621V34H224.133V16.3516H226.471L226.611 19.709C226.916 19.041 227.209 18.4727 227.49 18.0039C227.783 17.5352 228.082 17.1602 228.387 16.8789C228.691 16.5859 229.014 16.375 229.354 16.2461C229.705 16.1055 230.092 16.0352 230.514 16.0352C231.463 16.0352 232.184 16.3457 232.676 16.9668C233.168 17.5879 233.414 18.5488 233.414 19.8496C233.695 19.2402 233.971 18.7012 234.24 18.2324C234.51 17.752 234.797 17.3535 235.102 17.0371C235.418 16.709 235.764 16.4629 236.139 16.2988C236.514 16.123 236.947 16.0352 237.439 16.0352C239.654 16.0352 240.762 17.7402 240.762 21.1504V34H237.949ZM256.494 34L256.424 31.627C255.463 32.5762 254.484 33.2617 253.488 33.6836C252.504 34.1055 251.467 34.3164 250.377 34.3164C249.369 34.3164 248.508 34.1875 247.793 33.9297C247.078 33.6719 246.486 33.3203 246.018 32.875C245.561 32.418 245.221 31.8848 244.998 31.2754C244.787 30.666 244.682 30.0039 244.682 29.2891C244.682 27.5195 245.338 26.1367 246.65 25.1406C247.975 24.1328 249.926 23.6289 252.504 23.6289H256.16V22.082C256.16 21.0391 255.826 20.207 255.158 19.5859C254.49 18.9531 253.471 18.6367 252.1 18.6367C251.104 18.6367 250.119 18.748 249.146 18.9707C248.186 19.1934 247.189 19.5098 246.158 19.9199V17.1602C246.545 17.0195 246.973 16.8848 247.441 16.7559C247.922 16.6152 248.426 16.4922 248.953 16.3867C249.48 16.2812 250.031 16.1992 250.605 16.1406C251.18 16.0703 251.76 16.0352 252.346 16.0352C253.412 16.0352 254.373 16.1523 255.229 16.3867C256.084 16.6211 256.805 16.9785 257.391 17.459C257.988 17.9395 258.445 18.543 258.762 19.2695C259.078 19.9961 259.236 20.8516 259.236 21.8359V34H256.494ZM256.16 25.9668H252.275C251.514 25.9668 250.857 26.043 250.307 26.1953C249.756 26.3477 249.305 26.5645 248.953 26.8457C248.602 27.127 248.338 27.4668 248.162 27.8652C247.998 28.252 247.916 28.6914 247.916 29.1836C247.916 29.5234 247.969 29.8516 248.074 30.168C248.18 30.4727 248.35 30.748 248.584 30.9941C248.818 31.2285 249.123 31.416 249.498 31.5566C249.873 31.6973 250.33 31.7676 250.869 31.7676C251.572 31.7676 252.375 31.5566 253.277 31.1348C254.191 30.7012 255.152 30.0215 256.16 29.0957V25.9668ZM279.17 33.7539C278.479 33.9297 277.764 34.0527 277.025 34.123C276.287 34.2051 275.537 34.2461 274.775 34.2461C272.561 34.2461 270.908 33.748 269.818 32.752C268.729 31.7441 268.184 30.2031 268.184 28.1289V18.918H263.244V16.3516H268.184V11.5L271.242 10.709V16.3516H279.17V18.918H271.242V27.8828C271.242 29.1484 271.576 30.0977 272.244 30.7305C272.924 31.3516 273.92 31.6621 275.232 31.6621C275.795 31.6621 276.41 31.6211 277.078 31.5391C277.746 31.4453 278.443 31.3047 279.17 31.1172V33.7539ZM298.963 33.7539C298.271 33.9297 297.557 34.0527 296.818 34.123C296.08 34.2051 295.33 34.2461 294.568 34.2461C292.354 34.2461 290.701 33.748 289.611 32.752C288.521 31.7441 287.977 30.2031 287.977 28.1289V18.918H283.037V16.3516H287.977V11.5L291.035 10.709V16.3516H298.963V18.918H291.035V27.8828C291.035 29.1484 291.369 30.0977 292.037 30.7305C292.717 31.3516 293.713 31.6621 295.025 31.6621C295.588 31.6621 296.203 31.6211 296.871 31.5391C297.539 31.4453 298.236 31.3047 298.963 31.1172V33.7539ZM319.441 24.2441C319.441 24.6777 319.436 25.041 319.424 25.334C319.412 25.627 319.395 25.9023 319.371 26.1602H306.979C306.979 27.9648 307.482 29.3535 308.49 30.3262C309.498 31.2871 310.951 31.7676 312.85 31.7676C313.365 31.7676 313.881 31.75 314.396 31.7148C314.912 31.668 315.41 31.6094 315.891 31.5391C316.371 31.4688 316.828 31.3926 317.262 31.3105C317.707 31.2168 318.117 31.1172 318.492 31.0117V33.5254C317.66 33.7598 316.717 33.9473 315.662 34.0879C314.619 34.2402 313.535 34.3164 312.41 34.3164C310.898 34.3164 309.598 34.1113 308.508 33.7012C307.418 33.291 306.521 32.6992 305.818 31.9258C305.127 31.1406 304.611 30.1855 304.271 29.0605C303.943 27.9238 303.779 26.6406 303.779 25.2109C303.779 23.9688 303.955 22.7969 304.307 21.6953C304.67 20.582 305.191 19.6094 305.871 18.7773C306.562 17.9336 307.406 17.2656 308.402 16.7734C309.398 16.2812 310.529 16.0352 311.795 16.0352C313.025 16.0352 314.115 16.2285 315.064 16.6152C316.014 17.002 316.811 17.5527 317.455 18.2676C318.111 18.9707 318.604 19.832 318.932 20.8516C319.271 21.8594 319.441 22.9902 319.441 24.2441ZM316.26 23.8047C316.295 23.0195 316.219 22.3047 316.031 21.6602C315.844 21.0039 315.551 20.4414 315.152 19.9727C314.766 19.5039 314.279 19.1406 313.693 18.8828C313.107 18.6133 312.428 18.4785 311.654 18.4785C310.986 18.4785 310.377 18.6074 309.826 18.8652C309.275 19.123 308.801 19.4863 308.402 19.9551C308.004 20.4238 307.682 20.9863 307.436 21.6426C307.189 22.2988 307.037 23.0195 306.979 23.8047H316.26ZM325.049 16.3516H327.844L327.932 19.6035C328.975 18.3496 330 17.4414 331.008 16.8789C332.027 16.3164 333.053 16.0352 334.084 16.0352C335.912 16.0352 337.295 16.627 338.232 17.8105C339.182 18.9941 339.621 20.752 339.551 23.084H336.457C336.492 21.5371 336.264 20.418 335.771 19.7266C335.291 19.0234 334.582 18.6719 333.645 18.6719C333.234 18.6719 332.818 18.748 332.396 18.9004C331.986 19.041 331.559 19.2754 331.113 19.6035C330.68 19.9199 330.217 20.3301 329.725 20.834C329.232 21.3379 328.705 21.9473 328.143 22.6621V34H325.049V16.3516Z" fill="#C0C0C0"/>
<g clip-path="url(#clip0_103_3)">
<path d="M23.0112 21.7618L32.9566 11.8103H13.0656L23.0112 21.7618Z" fill="#5A6378"/>
<path d="M1.26224 0L11.2802 10.024H33.0561L23.0381 0H1.26224Z" fill="#5A6378"/>
<path d="M45.9994 22.975L35.161 12.1301L24.2732 23.0244L35.1116 33.8692L45.9994 22.975Z" fill="#5A6378"/>
<path d="M46.0224 20.4716V0H25.5627L46.0224 20.4716Z" fill="#5A6378"/>
<path d="M21.7488 23.0248L0 1.26313V44.7867L21.7488 23.0248Z" fill="#5A6378"/>
<path d="M36.3743 35.1328L46.0224 44.7867V25.479L36.3743 35.1328Z" fill="#5A6378"/>
<path d="M23.0112 24.2879L1.26251 46.0496H44.7599L23.0112 24.2879Z" fill="#5A6378"/>
<path d="M12.1923 35.1632L23.0257 24.3235L33.859 35.1632L44.6924 46.003H23.0257H1.35892L12.1923 35.1632Z" fill="#5A6378"/>
<path d="M29.6943 28.4277L24.3092 23.0392L29.7321 17.6131L35.155 12.187L40.5528 17.5879L45.9505 22.9889L40.5403 28.4025C37.5646 31.38 35.1186 33.8161 35.1047 33.8161C35.0907 33.8161 32.6561 31.3913 29.6943 28.4277Z" fill="#5A6378"/>
<path d="M41.1818 39.922L36.4132 35.1504L41.1945 30.3665L45.9758 25.5826V35.1381C45.9758 40.3937 45.9701 44.6937 45.9631 44.6937C45.9561 44.6937 43.8046 42.5464 41.1818 39.922H41.1818Z" fill="#5A6378"/>
<path d="M35.7841 10.1977L25.6177 0.025177H35.7967H45.9758V10.1977C45.9758 15.7926 45.9701 20.3702 45.9632 20.3702C45.9562 20.3702 41.3756 15.7926 35.7841 10.1977H35.7841Z" fill="#5A6378"/>
<path d="M18.0431 16.7696L13.0858 11.8092H23.0005H32.9152L27.9579 16.7696C25.2314 19.4978 23.0006 21.7299 23.0005 21.7299C23.0004 21.7299 20.7695 19.4978 18.0431 16.7696Z" fill="#5A6378"/>
<path d="M6.29116 5.01072L1.30875 0.025177H12.1547H23.0007L27.9831 5.01072L32.9655 9.99627H22.1195H11.2736L6.29116 5.01072Z" fill="#5A6378"/>
</g>
<rect x="0.5" y="0.5" width="45" height="45" stroke="#A9A9A9"/>
<defs>
<clipPath id="clip0_103_3">
<rect width="46" height="46" fill="white"/>
</clipPath>
</defs>
</svg>
